<svg width="33" height="30" viewBox="0 0 33 30" fill="none" xmlns="http://www.w3.org/2000/svg">
<g id="Heart">
<path id="Vector" d="M28.9605 3.52271C28.0961 2.65864 27.0505 1.99744 25.8993 1.58689C24.7481 1.17634 23.52 1.02671 22.3039 1.14882C21.0878 1.27092 19.914 1.66171 18.8674 2.29293C17.8208 2.92415 16.9275 3.78004 16.2521 4.79871C15.6156 3.83676 14.7844 3.01898 13.8122 2.39816C12.8401 1.77735 11.7485 1.36728 10.6081 1.19445C9.46763 1.02162 8.30361 1.08986 7.19117 1.39477C6.07872 1.69967 5.04257 2.23447 4.14962 2.96463C3.25666 3.69479 2.52674 4.60409 2.00698 5.63382C1.48722 6.66356 1.18917 7.79084 1.13206 8.9429C1.07496 10.095 1.26008 11.2462 1.67546 12.3223C2.09085 13.3984 2.72727 14.3754 3.54365 15.1903L16.2521 27.8987L28.9605 15.1903C29.7266 14.4242 30.3344 13.5147 30.749 12.5137C31.1636 11.5128 31.377 10.4399 31.377 9.35649C31.377 8.27305 31.1636 7.20022 30.749 6.19926C30.3344 5.19829 29.7266 4.2888 28.9605 3.52271Z" stroke="#212121" stroke-width="2" stroke-miterlimit="10" stroke-linecap="square"/>
</g>
</svg>
